<svg width="512" height="512" viewBox="0 0 512 512" fill="none" xmlns="http://www.w3.org/2000/svg">
<path d="M256 512C397.385 512 512 397.385 512 256C512 114.615 397.385 0 256 0C114.615 0 0 114.615 0 256C0 397.385 114.615 512 256 512Z" fill="white"/>
<path d="M198.162 104.93C172.417 79.1849 130.676 79.1849 104.931 104.93C79.1856 130.675 79.1856 172.416 104.931 198.161L314.831 408.061C340.576 433.806 382.317 433.806 408.062 408.061C433.807 382.316 433.807 340.575 408.062 314.83L198.162 104.93Z" fill="#ED4C5C"/>
<path d="M205.175 312.383L205.175 312.383C187.17 291.489 155.637 289.146 134.743 307.151L97.1942 339.507C76.3003 357.511 73.9579 389.045 91.9625 409.939L91.9627 409.939C109.967 430.833 141.501 433.175 162.395 415.171L199.943 382.815C220.837 364.81 223.18 333.277 205.175 312.383Z" fill="#08B78D"/>
<path d="M431.493 112.035L431.493 112.035C413.488 91.1408 381.955 88.7984 361.061 106.803L323.512 139.159C302.618 157.164 300.276 188.697 318.28 209.591L318.28 209.591C336.285 230.485 367.818 232.828 388.712 214.823L426.261 182.467C447.155 164.462 449.497 132.929 431.493 112.035Z" fill="#FBC63D"/>
<path d="M254.145 448.927C269.513 448.927 281.971 436.469 281.971 421.101C281.971 405.734 269.513 393.275 254.145 393.275C238.777 393.275 226.319 405.734 226.319 421.101C226.319 436.469 238.777 448.927 254.145 448.927Z" fill="#716E73"/>
<path d="M265.275 129.855C280.643 129.855 293.101 117.397 293.101 102.029C293.101 86.661 280.643 74.2029 265.275 74.2029C249.907 74.2029 237.449 86.661 237.449 102.029C237.449 117.397 249.907 129.855 265.275 129.855Z" fill="#736E6E"/>
</svg>
