<svg width="138" height="138" viewBox="0 0 138 138" fill="none" xmlns="http://www.w3.org/2000/svg">
<rect width="138" height="138" fill="#E5E5E5"/>
<path d="M69 138C107.108 138 138 107.108 138 69C138 30.8924 107.108 0 69 0C30.8924 0 0 30.8924 0 69C0 107.108 30.8924 138 69 138Z" fill="white"/>
<path d="M53.4108 28.2819C46.4717 21.3428 35.2212 21.3428 28.2821 28.2819C21.343 35.221 21.343 46.4716 28.2821 53.4107L84.8567 109.985C91.7958 116.924 103.046 116.924 109.985 109.985C116.925 103.046 116.925 91.7957 109.985 84.8566L53.4108 28.2819Z" fill="#ED4C5C"/>
<path d="M55.3011 84.1969L55.301 84.1969C50.4483 78.5653 41.949 77.934 36.3174 82.7867L26.1969 91.5077C20.5653 96.3605 19.934 104.86 24.7868 110.491L24.7868 110.491C29.6396 116.123 38.1388 116.754 43.7704 111.902L53.891 103.181C59.5225 98.3277 60.1539 89.8285 55.3011 84.1969Z" fill="#08B78D"/>
<path d="M116.301 30.1969L116.301 30.1969C111.448 24.5653 102.949 23.934 97.3171 28.7867L87.1966 37.5077C81.565 42.3605 80.9337 50.8597 85.7865 56.4913L85.7865 56.4914C90.6393 62.1229 99.1385 62.7543 104.77 57.9015L114.891 49.1805C120.522 44.3277 121.154 35.8285 116.301 30.1969Z" fill="#FBC63D"/>
<path d="M68.5 121C72.6421 121 76 117.642 76 113.5C76 109.358 72.6421 106 68.5 106C64.3579 106 61 109.358 61 113.5C61 117.642 64.3579 121 68.5 121Z" fill="#716E73"/>
<path d="M71.5 35C75.6421 35 79 31.6421 79 27.5C79 23.3579 75.6421 20 71.5 20C67.3579 20 64 23.3579 64 27.5C64 31.6421 67.3579 35 71.5 35Z" fill="#736E6E"/>
</svg>
