<svg width="16" height="16" viewBox="0 0 16 16" fill="none" xmlns="http://www.w3.org/2000/svg">
<rect width="16" height="16" fill="#E5E5E5"/>
<path d="M8 16C12.4183 16 16 12.4183 16 8C16 3.58172 12.4183 0 8 0C3.58172 0 0 3.58172 0 8C0 12.4183 3.58172 16 8 16Z" fill="white"/>
<path d="M6.19256 3.27906C5.38803 2.47453 4.08362 2.47453 3.27908 3.27906C2.47455 4.0836 2.47455 5.38801 3.27908 6.19254L9.83846 12.7519C10.643 13.5565 11.9474 13.5565 12.7519 12.7519C13.5565 11.9474 13.5565 10.643 12.7519 9.83844L6.19256 3.27906Z" fill="#ED4C5C"/>
<path d="M6.41172 9.76196L6.41171 9.76195C5.84907 9.10902 4.86365 9.03582 4.21072 9.59846L3.03732 10.6096C2.38438 11.1722 2.31119 12.1577 2.87383 12.8106L2.87383 12.8106C3.43648 13.4635 4.4219 13.5367 5.07483 12.9741L6.24823 11.963C6.90117 11.4003 6.97436 10.4149 6.41172 9.76196Z" fill="#08B78D"/>
<path d="M13.4842 3.50109L13.4841 3.50108C12.9215 2.84815 11.9361 2.77495 11.2831 3.33759L10.1097 4.34872C9.45681 4.91136 9.38361 5.89678 9.94626 6.54972L9.94626 6.54973C10.5089 7.20266 11.4943 7.27586 12.1473 6.71322L13.3207 5.70209C13.9736 5.13945 14.0468 4.15403 13.4842 3.50109Z" fill="#FBC63D"/>
<path d="M7.94203 14.029C8.42228 14.029 8.81159 13.6397 8.81159 13.1594C8.81159 12.6792 8.42228 12.2899 7.94203 12.2899C7.46178 12.2899 7.07246 12.6792 7.07246 13.1594C7.07246 13.6397 7.46178 14.029 7.94203 14.029Z" fill="#716E73"/>
<path d="M8.28986 4.05797C8.7701 4.05797 9.15942 3.66865 9.15942 3.18841C9.15942 2.70816 8.7701 2.31884 8.28986 2.31884C7.80961 2.31884 7.42029 2.70816 7.42029 3.18841C7.42029 3.66865 7.80961 4.05797 8.28986 4.05797Z" fill="#736E6E"/>
</svg>
